<svg xmlns="http://www.w3.org/2000/svg" xmlns:xlink="http://www.w3.org/1999/xlink" width="19" height="20" viewBox="0 0 19 20">
  <defs>
    <path id="a" d="M27.665 24.07c.205-1.146.077-2.34-.384-3.426l1.12-1.12c.877-.875.877-2.3 0-3.174-.874-.876-2.3-.876-3.174 0l-3.81 3.81c-.875.875-.875 2.3 0 3.175.303.302.67.498 1.06.59l-2.04 2.04c-.33-.2-.64-.44-.925-.725-1.925-1.926-1.925-5.06 0-6.985l3.81-3.81c1.927-1.927 5.06-1.927 6.986 0 1.927 1.925 1.927 5.06 0 6.985l-2.64 2.64zm-10.58-3.34c-.205 1.146-.077 2.34.384 3.425l-1.12 1.12c-.877.875-.877 2.3 0 3.175.874.875 2.3.875 3.174 0l3.81-3.81c.875-.876.875-2.3 0-3.175-.303-.303-.67-.5-1.06-.592l2.04-2.04c.33.2.64.442.925.727 1.925 1.925 1.925 5.06 0 6.985l-3.81 3.81c-1.927 1.926-5.06 1.926-6.986 0-1.927-1.926-1.927-5.06 0-6.985l2.64-2.64z"/>
  </defs>
  <use fill="#999" xlink:href="#a" fill-rule="evenodd" transform="translate(-13.015 -12.597)"/>
</svg>
