<svg xmlns="http://www.w3.org/2000/svg" width="17" height="16" viewBox="0 0 17 16">
  <path fill="#999" fill-rule="evenodd" d="M16.516 1.062c-.494.328-1.628.803-2.187.803-.64-.69-1.54-1.12-2.536-1.12-1.937 0-3.507 1.624-3.507 3.626 0 .28.03.55.09.81h-.002c-2.627-.07-5.5-1.432-7.23-3.763-1.063 1.904-.143 4.02 1.064 4.79-.414.034-1.175-.048-1.533-.41-.024 1.264.564 2.938 2.706 3.545-.413.23-1.143.164-1.46.115.11 1.066 1.555 2.46 3.134 2.46-.563.673-2.68 1.894-5.057 1.506 1.614 1.015 3.495 1.603 5.486 1.603 5.658 0 10.053-4.74 9.816-10.59v-.02-.045c0-.017 0-.035-.002-.052.515-.364 1.206-1.01 1.7-1.857-.286.164-1.145.49-1.945.572.513-.286 1.273-1.224 1.46-1.97"/>
</svg>
